<?xml version="1.0" encoding="UTF-8" standalone="no" ?>
<!DOCTYPE svg PUBLIC "-//W3C//DTD SVG 1.1//EN" "http://www.w3.org/Graphics/SVG/1.1/DTD/svg11.dtd">
<svg xmlns="http://www.w3.org/2000/svg" xmlns:xlink="http://www.w3.org/1999/xlink" fill="#ff9933" version="1.1" width="1080" height="1080" viewBox="0 0 1080 1080" xml:space="preserve">
<desc>Created with Fabric.js 5.2.4</desc>
<defs>
</defs>
<g transform="matrix(1 0 0 1 540 540)" id="c4cf04a0-ad37-43eb-b197-3e6b3256c277"  >
<rect style="stroke: none; stroke-width: 1; stroke-dasharray: none; stroke-linecap: butt; stroke-dashoffset: 0; stroke-linejoin: miter; stroke-miterlimit: 4; fill: rgb(255, 153, 51); fill-rule: nonzero; opacity: 1; visibility: hidden;" vector-effect="non-scaling-stroke"  x="-540" y="-540" rx="0" ry="0" width="1080" height="1080" />
</g>
<g transform="matrix(1 0 0 1 540 540)" id="01f17c63-eacf-4afe-8948-b85946e6071c"  >
</g>
<g transform="matrix(31.76 0 0 31.76 540 540)"  >
<g style=""   >
		<g transform="matrix(0.92 0 0 0.92 -5.53 0)"  >
<path style="stroke: none; stroke-width: 1; stroke-dasharray: none; stroke-linecap: butt; stroke-dashoffset: 0; stroke-linejoin: miter; stroke-miterlimit: 4; fill: rgb(255, 153, 51); fill-rule: evenodd; opacity: 1;" vector-effect="non-scaling-stroke"  transform=" translate(-10.51, -12)" d="M 0.00183571 0.3125 L 0.00183571 7.59485 C 0.00183571 7.59485 -0.141502 9.88783 2.10473 11.8288 L 14.5469 23.6837 L 21.0172 23.6005 L 19.9794 10.8126 L 17.5261 7.93369 L 9.81536 0.3125 L 0.00183571 0.3125 Z" stroke-linecap="round" />
</g>
		<g transform="matrix(0.92 0 0 0.92 -3.36 -1.13)"  >
<path style="stroke: none; stroke-width: 1; stroke-dasharray: none; stroke-linecap: butt; stroke-dashoffset: 0; stroke-linejoin: miter; stroke-miterlimit: 4; fill: rgb(255, 153, 51); fill-rule: evenodd; opacity: 0.06;" vector-effect="non-scaling-stroke"  transform=" translate(-12.88, -10.76)" d="M 8.17969 17.7762 L 13.3027 3.75173 L 17.589 8.02192 L 8.17969 17.7762 Z" stroke-linecap="round" />
</g>
		<g transform="matrix(0.92 0 0 0.92 -3.16 -0.7)"  >
<path style="stroke: none; stroke-width: 1; stroke-dasharray: none; stroke-linecap: butt; stroke-dashoffset: 0; stroke-linejoin: miter; stroke-miterlimit: 4; fill: rgb(255, 153, 51); fill-rule: evenodd; opacity: 0.06;" vector-effect="non-scaling-stroke"  transform=" translate(-13.1, -11.23)" d="M 8.58203 17.2248 L 14.8129 5.24231 L 17.6211 8.05247 L 8.58203 17.2248 Z" stroke-linecap="round" />
</g>
		<g transform="matrix(0.92 0 0 0.92 4.2 0)"  >
<path style="stroke: none; stroke-width: 1; stroke-dasharray: none; stroke-linecap: butt; stroke-dashoffset: 0; stroke-linejoin: miter; stroke-miterlimit: 4; fill: rgb(255, 153, 51); fill-rule: evenodd; opacity: 1;" vector-effect="non-scaling-stroke"  transform=" translate(-21.13, -12)" d="M 8.25781 17.6914 L 25.1339 0.3125 L 33.9991 0.3125 L 33.9991 7.62657 C 33.9991 7.62657 33.8144 10.0645 32.5743 11.3686 L 21.0179 23.6875 L 14.5487 23.6875 L 8.25781 17.6914 Z" stroke-linecap="round" />
</g>
</g>
</g>
</svg>